<svg xmlns="http://www.w3.org/2000/svg" version="1.1" xmlns:xlink="http://www.w3.org/1999/xlink" xmlns:svgjs="http://svgjs.dev/svgjs" width="100%" height="100%" viewBox="0 0 1000 600"><rect width="1000" height="600" x="0" y="0" fill="#262223"/><g><rect width="333.3333333333333" height="333.3333333333333" rx="13.333333333333334" ry="13.333333333333334" y="218.60339477963745" fill="#ddc6b6" transform="matrix(0.6365172560511874,0,0,0.6365172560511875,0,54.76895614364118)" x="196.3812255859375"/><path d="M326.62267292096476 459.4455688551776L326.62267292096476 456.9426241469469Q326.62267292096476 456.11812471364743 327.53551157926063 456.11812471364743L327.53551157926063 456.11812471364743L330.45070600414107 456.11812471364743Q340.58027047039235 456.11812471364743 346.7640162201388 451.78950268882494Q352.9183155615531 447.4314342556703 352.9183155615531 441.6304918142415L352.9183155615531 441.6304918142415L352.9183155615531 327.0250705856079Q352.9183155615531 324.8754827773628 352.0349233115893 324.6104651023736Q351.1515310616255 324.3454474273845 349.91478191167624 324.1393225690596L349.91478191167624 324.1393225690596L310.1621306633064 324.1393225690596Q300.5331551387013 326.2005711523084 297.52962148882443 338.9508659601189L297.52962148882443 338.9508659601189Q295.8806226222254 345.78243269317204 295.556712130572 347.6964492347602Q295.26224804725075 349.6104657763484 294.4083022056191 349.6104657763484L294.4083022056191 349.6104657763484L292.5531784806952 349.6104657763484Q291.93480390572057 349.6104657763484 291.93480390572057 349.19821605969867L291.93480390572057 349.19821605969867L291.93480390572057 345.78243269317204L295.7628369888969 313.47972275283007Q296.38121156387155 310.2700642446283 297.8240855721457 310.2700642446283Q299.296405988752 310.2700642446283 300.94540485535106 312.27242001121294Q302.5944037219501 314.30422218612955 307.246936238426 314.30422218612955L307.246936238426 314.30422218612955L418.84882381718273 314.30422218612955Q423.2952314753337 314.30422218612955 424.2375165419617 313.2735978945052Q425.17980160858974 312.24297360288074 426.0043010418893 311.2417957195885Q426.8288004751888 310.2700642446283 428.12444244180233 310.2700642446283Q429.4200844084159 310.2700642446283 429.7734413084014 311.3006885362528Q430.1267982083869 312.3313128278771 430.33292306671177 313.47972275283007L430.33292306671177 313.47972275283007L434.16095614988814 345.78243269317204L434.16095614988814 349.19821605969867Q434.16095614988814 349.6104657763484 433.5425815749135 349.6104657763484L433.5425815749135 349.6104657763484L431.6874578499896 349.6104657763484Q430.86295841669005 349.6104657763484 430.53904792503664 348.0498061347457L430.53904792503664 348.0498061347457Q428.8900490584376 337.6846704018375 425.7981761835644 331.6481566937517Q422.6768569003591 325.5821965773338 415.9630758006344 324.1393225690596L415.9630758006344 324.1393225690596L376.0926389189361 324.1393225690596Q374.8558897689868 324.3454474273845 373.972497519023 324.6104651023736Q373.08910526905925 324.8754827773628 373.08910526905925 327.0250705856079L373.08910526905925 327.0250705856079L373.08910526905925 441.6304918142415Q373.08910526905925 447.4314342556703 379.24340461047353 451.78950268882494Q385.4271503602199 456.11812471364743 395.5567148264712 456.11812471364743L395.5567148264712 456.11812471364743L398.5602484763481 456.11812471364743Q399.38474790964756 456.11812471364743 399.38474790964756 456.9426241469469L399.38474790964756 456.9426241469469L399.38474790964756 459.4455688551776Q399.38474790964756 460.27006828847715 398.5602484763481 460.27006828847715L398.5602484763481 460.27006828847715L327.44717235426424 460.27006828847715Q326.62267292096476 460.27006828847715 326.62267292096476 459.4455688551776L326.62267292096476 459.4455688551776Z " fill="#262223" transform="matrix(0.6365172560511874,0,0,0.6365172560511875,0,54.76895614364118)"/><path d="M635.0556009188416 417.7865655317181L635.0556009188416 416.19857202634824Q635.0556009188416 415.67546828340284 635.6347514913882 415.67546828340284L635.6347514913882 415.67546828340284L637.4842968682308 415.67546828340284Q643.9109999958455 415.67546828340284 647.8342780679358 412.9291736329396Q651.7388738634924 410.16419670594263 651.7388738634924 406.48378822879124L651.7388738634924 406.48378822879124L651.7388738634924 333.772367959384Q651.7388738634924 332.40856177241926 651.1784055674794 332.24042128361543Q650.6179372714665 332.07228079481155 649.8332816570485 331.94150485907517L649.8332816570485 331.94150485907517L624.6122083364678 331.94150485907517Q618.5031039099272 333.24926421643863 616.5975117034834 341.3386899555582L616.5975117034834 341.3386899555582Q615.5513042175926 345.6729781113913 615.3457991757211 346.8873260860859Q615.1589764103835 348.10167406078057 614.6171903909044 348.10167406078057L614.6171903909044 348.10167406078057L613.4402069692774 348.10167406078057Q613.0478791620683 348.10167406078057 613.0478791620683 347.84012218930786L613.0478791620683 347.84012218930786L613.0478791620683 345.6729781113913L615.4765751114576 325.1785207538528Q615.8689029186665 323.1421526116726 616.784334468821 323.1421526116726Q617.7184482955091 323.1421526116726 618.7646557813998 324.41254741596856Q619.8108632672906 325.7016244967982 622.7626629596252 325.7016244967982L622.7626629596252 325.7016244967982L693.5684910225887 325.7016244967982Q696.3895147791869 325.7016244967982 696.9873476282673 325.0477448181165Q697.5851804773478 324.39386513943475 698.1082842202932 323.7586677372868Q698.6313879632385 323.1421526116726 699.453408130724 323.1421526116726Q700.2754282982097 323.1421526116726 700.4996156166148 323.79603229035433Q700.72380293502 324.44991196903607 700.8545788707563 325.1785207538528L700.8545788707563 325.1785207538528L703.2832748201456 345.6729781113913L703.2832748201456 347.84012218930786Q703.2832748201456 348.10167406078057 702.8909470129365 348.10167406078057L702.8909470129365 348.10167406078057L701.7139635913095 348.10167406078057Q701.1908598483641 348.10167406078057 700.9853548064928 347.11151340449106L700.9853548064928 347.11151340449106Q699.9391473206019 340.53535206460634 697.9775082845567 336.7054853751848Q695.9971869719778 332.8569364092296 691.7376279222798 331.94150485907517L691.7376279222798 331.94150485907517L666.4418254955642 331.94150485907517Q665.657169881146 332.07228079481155 665.0967015851331 332.24042128361543Q664.5362332891202 332.40856177241926 664.5362332891202 333.772367959384L664.5362332891202 333.772367959384L664.5362332891202 406.48378822879124Q664.5362332891202 410.16419670594263 668.4408290846768 412.9291736329396Q672.3641071567672 415.67546828340284 678.7908102843817 415.67546828340284L678.7908102843817 415.67546828340284L680.6964024908257 415.67546828340284Q681.219506233771 415.67546828340284 681.219506233771 416.19857202634824L681.219506233771 416.19857202634824L681.219506233771 417.7865655317181Q681.219506233771 418.30966927466346 680.6964024908257 418.30966927466346L680.6964024908257 418.30966927466346L635.578704661787 418.30966927466346Q635.0556009188416 418.30966927466346 635.0556009188416 417.7865655317181L635.0556009188416 417.7865655317181ZM760.7686397145357 383.69141085759986L722.675477862192 383.69141085759986Q721.5545412701662 383.69141085759986 721.5545412701662 388.4927559267771L721.5545412701662 388.4927559267771Q721.5545412701662 398.6745966376781 727.5889165905718 405.5683566786368Q733.6419741875112 412.46211671959554 742.6094669237176 412.46211671959554Q751.5582773833903 412.46211671959554 759.8345258878475 404.70897195808374L759.8345258878475 404.70897195808374Q759.9653018235838 404.57819602234736 760.1708068654552 404.57819602234736L760.1708068654552 404.57819602234736L760.507087843063 404.57819602234736Q760.899415650272 404.57819602234736 761.2543789044136 405.21339342449534Q761.609342158555 405.8299085501095 761.9456231361627 406.0354135919809L761.9456231361627 406.0354135919809Q754.3232543103873 415.2831404761938 744.0106376637499 418.8327730176089L744.0106376637499 418.8327730176089Q740.4610051223348 420.084485545371 735.9959410307654 420.084485545371Q731.5308769391959 420.084485545371 726.93503691189 417.6184250429142Q722.3391968845843 415.1523645404574 719.051116214642 411.1543573622321L719.051116214642 411.1543573622321Q712.1013093440819 402.80337975163985 712.1013093440819 390.3609835801534Q712.1013093440819 377.91858740866695 719.6863136167899 367.66201759163084Q727.2713178894978 357.4241300511285 740.5357342284698 357.4241300511285L740.5357342284698 357.4241300511285Q750.0636952606892 357.4241300511285 756.0980705810948 365.92456587399084Q762.1324459015003 374.44368397338695 762.1324459015003 380.8703871010016L762.1324459015003 380.8703871010016Q762.1324459015003 383.69141085759986 760.7686397145357 383.69141085759986L760.7686397145357 383.69141085759986ZM723.385404370475 376.61082805130354L723.385404370475 377.3954836657216Q723.385404370475 378.6471961934837 724.5810700686359 378.6471961934837L724.5810700686359 378.6471961934837L749.3350864758725 378.6471961934837Q751.0351736404449 378.6471961934837 751.0351736404449 376.61082805130354L751.0351736404449 376.61082805130354Q751.0351736404449 371.86552981172764 746.8129791438143 366.9147265302803Q742.5721023706501 361.963923248833 737.5092054300002 361.963923248833L737.5092054300002 361.963923248833Q732.5770844250866 361.963923248833 728.5417126937938 366.42898734040244Q724.5063409625009 370.89405143197195 723.385404370475 376.61082805130354L723.385404370475 376.61082805130354ZM808.9128663420439 359.198946321836L829.0710427219747 359.198946321836Q829.5941464649201 359.198946321836 829.5941464649201 360.24515380772675Q829.5941464649201 361.2913612936175 829.0710427219747 361.5529131650902L829.0710427219747 361.5529131650902Q824.0081457813249 362.9354016285887 820.9816169828551 366.1674354689298L820.9816169828551 366.1674354689298Q819.8793626673631 367.3444188905569 818.5529210334659 368.913730119393L818.5529210334659 368.913730119393L805.8863375435743 384.15846777094396Q805.6247856721017 384.6068424077543 805.6247856721017 385.0178524914971L805.6247856721017 385.0178524914971Q805.6247856721017 385.80250810591514 811.3415622914332 392.7336326999413Q817.0583389107649 399.66475729396757 827.0907214093958 412.33134078385916L827.0907214093958 412.33134078385916Q827.8193301942125 413.2467723340136 829.9864742721292 414.18088616070173Q832.1536183500457 415.09631771085617 832.9382739644637 415.6567860068691Q833.7416118554155 416.19857202634824 833.7416118554155 417.1326858530364Q833.7416118554155 418.0481174031908 832.9382739644637 418.30966927466346L832.9382739644637 418.30966927466346L807.0633209652013 418.30966927466346Q806.4094412865197 418.30966927466346 806.4094412865197 417.26346178877276Q806.4094412865197 416.19857202634824 807.4930133254779 416.0491138140781Q808.5765853644363 415.8809733252742 809.9590738279347 415.67546828340284L809.9590738279347 415.67546828340284Q813.4339772632147 415.1523645404574 813.4339772632147 412.9291736329396L813.4339772632147 412.9291736329396Q813.4339772632147 411.4159092337048 811.7899369282435 409.5663638568622L811.7899369282435 409.5663638568622L800.5058419018504 395.38651596773576Q799.9640558823713 394.657907182919 799.6838217343649 394.26557937570993Q799.3849053098246 393.8732515685009 798.5255205892715 393.8732515685009Q797.6661358687184 393.8732515685009 797.1803966788406 394.5644958002502Q796.6946574889627 395.25574003199944 796.1715537460174 395.7788437749448L796.1715537460174 395.7788437749448L785.8589370993799 408.2025576698975Q784.4764486358814 409.7718688987336 784.4764486358814 411.86428387051507Q784.4764486358814 413.9753811188304 787.2040610098109 415.189729093525Q789.9316733837403 416.4040770682196 792.0240883555218 416.4040770682196L792.0240883555218 416.4040770682196Q792.4911452688659 416.4040770682196 792.4911452688659 417.3942377245091L792.4911452688659 417.3942377245091Q792.4911452688659 418.30966927466346 792.0240883555218 418.30966927466346L792.0240883555218 418.30966927466346L770.9504804254367 418.30966927466346Q769.8855906630122 418.30966927466346 769.8855906630122 417.1326858530364L769.8855906630122 417.1326858530364Q769.8855906630122 416.19857202634824 773.528634587096 414.49848486177575Q777.1903607877136 412.79839769720326 777.9750164021317 411.86428387051507L777.9750164021317 411.86428387051507L796.1715537460174 390.0060203260119Q796.0968246398822 389.87524439027555 795.9286841510784 389.66973934840416Q795.7605436622745 389.4829165830665 795.1813930897279 388.7543077982497Q794.5835602406474 388.025699013433 793.3318477128853 386.4937523376644Q792.098817461657 384.943123385362 786.7370040964668 378.34827976894354Q781.3938730078104 371.73475387599126 775.4715913466074 364.39261919822223L775.4715913466074 364.39261919822223Q774.6869357321895 363.5332344776691 772.1835106766652 362.44966243871085Q769.6987678976745 361.3660903997526 769.6987678976745 360.50670567919946L769.6987678976745 360.50670567919946Q769.8295438334109 359.198946321836 771.2680791265107 359.198946321836L771.2680791265107 359.198946321836L795.7044968326733 359.198946321836Q796.2276005756186 359.198946321836 796.1902360225511 360.0209664893216Q796.1715537460174 360.84298665680717 795.1813930897279 361.06717397521237Q794.1912324334384 361.2913612936175 793.0142490118113 361.7023713773603L793.0142490118113 361.7023713773603Q789.8569442776053 362.61780292751473 789.8569442776053 364.91572294116764L789.8569442776053 364.91572294116764Q789.8569442776053 366.42898734040244 790.4547771266857 367.0081379129491L790.4547771266857 367.0081379129491L800.6366178375868 379.61867457323945Q801.1597215805322 380.21650742231986 801.7201898765451 380.9077516540691Q802.280658172558 381.59899588581834 802.6916682563008 381.59899588581834Q803.1213606165774 381.59899588581834 803.6444643595227 380.94511620713666L803.6444643595227 380.94511620713666L813.3032013274784 369.69838573381105Q814.9472416624495 367.79279352736717 814.9472416624495 365.9058835974571Q814.9472416624495 364.0002913910132 813.9010341765588 363.2343180531289Q812.854826690668 362.48702699177835 811.5657496098383 362.11338146110313Q810.2766725290087 361.7584182069616 809.230465043118 361.42213722935384Q808.1842575572272 361.1045385282799 808.1842575572272 360.15174242505793Q808.1842575572272 359.198946321836 808.9128663420439 359.198946321836L808.9128663420439 359.198946321836ZM875.7020049502481 367.79279352736717L855.9361563775265 367.79279352736717Q855.5438285703175 367.79279352736717 855.5438285703175 368.39062637644764L855.5438285703175 368.39062637644764L855.5438285703175 404.6529251284824Q855.5438285703175 408.5948854771065 857.2812802879574 410.81807638462436Q859.0187320055975 413.05994956867596 861.7089798264593 413.05994956867596Q864.3992276473213 413.05994956867596 866.4169135129678 412.16320029505533Q868.4159171020805 411.28513329796846 869.8918169482478 410.2389258120777Q871.3677167944151 409.1740360496532 872.5447002160422 408.29596905256625Q873.7403659142029 407.3992197789456 874.6557974643574 407.3992197789456Q875.5712290145119 407.3992197789456 875.5712290145119 407.8662766922897L875.5712290145119 407.8662766922897Q875.5712290145119 409.4355879211259 875.234948036904 409.9026448344699L875.234948036904 409.9026448344699Q867.3697096161897 420.084485545371 860.0462572149544 420.084485545371Q852.7228048137191 420.084485545371 849.0050317835003 415.4512809649977Q845.2872587532813 410.81807638462436 845.2872587532813 404.3913732570097L845.2872587532813 404.3913732570097L845.2872587532813 367.79279352736717L840.3738200249016 367.79279352736717Q838.524274648059 367.79279352736717 838.4308632653901 366.6158101057401Q838.3374518827213 365.438826684113 838.7858265195317 365.1025457065053L838.7858265195317 365.1025457065053Q842.2794122313454 362.87935479898744 848.3698343813523 357.0878490735208L848.3698343813523 357.0878490735208Q849.0423963365678 356.3779225652377 850.1446506520598 354.9207049956042Q851.2655872440856 353.4821697025044 853.3953667689347 350.9787446469801Q855.5438285703175 348.4940018679896 856.6460828858095 348.4940018679896Q857.7670194778353 348.4940018679896 857.7670194778353 349.409433418144L857.7670194778353 349.409433418144Q857.7670194778353 349.5402093538803 855.5438285703175 358.0219629002089L855.5438285703175 358.0219629002089Q855.5438285703175 359.198946321836 856.5900360562083 359.2549931514373L856.5900360562083 359.2549931514373L873.3293558304603 359.2549931514373Q876.2251086931936 359.2549931514373 876.2251086931936 367.40046572015814L876.2251086931936 367.40046572015814Q876.2251086931936 367.79279352736717 875.7020049502481 367.79279352736717L875.7020049502481 367.79279352736717ZM975.2785388752071 395.85357288107986L966.2176347563319 415.80624421913916Q965.8813537787242 416.3480302386183 964.5922766978946 416.0491138140781Q963.3218818935987 415.7501973895379 961.6031124524924 415.7501973895379Q959.90302528792 415.7501973895379 956.7830851067814 416.44144162128714Q953.663144925643 417.1326858530364 946.9562076500218 418.6085856992037Q940.2679526509345 420.084485545371 934.7566810734744 420.084485545371L934.7566810734744 420.084485545371Q922.2769203489204 420.084485545371 910.5444506857169 414.19956843723554Q898.8119810225136 408.3333336056338 891.7874450458185 397.5162954925848Q884.7629090691235 386.7179396560695 884.7629090691235 372.46336266080806Q884.7629090691235 358.20878566554654 891.7874450458185 346.64445649114697L891.7874450458185 346.64445649114697Q902.0440148628546 329.69963167502357 922.6692481561294 324.5806879047724L922.6692481561294 324.5806879047724Q929.2267272194804 322.9366475698012 935.8028885593651 322.9366475698012L935.8028885593651 322.9366475698012Q944.7890635721054 322.9366475698012 957.1380483609229 325.96317636827087L957.1380483609229 325.96317636827087Q960.8931859442093 326.8786079184253 963.4900223824026 327.86876857471475Q966.0681765440619 328.8589292310042 966.6660093931422 328.8589292310042L966.6660093931422 328.8589292310042L968.6463307057212 328.33582548805884L970.6826988479014 328.33582548805884Q971.4673544623193 328.33582548805884 971.4673544623193 329.43807980355086L971.4673544623193 329.43807980355086L971.4673544623193 349.87649033148807Q971.4673544623193 350.5303700101698 970.2716887641586 350.5303700101698Q969.0947053425315 350.5303700101698 968.9078825771938 350.2314535856296Q968.7023775353225 349.93253716108933 968.5155547699849 349.5028448008128Q968.3100497281135 349.09183471707 968.0858624097083 348.6247778037259Q967.8429928147694 348.1577208903818 967.6188054963642 347.7653930831728Q967.394618177959 347.37306527596377 967.3198890718239 347.18624251062613L967.3198890718239 347.18624251062613Q957.4743293385307 327.40171166137065 937.4469288943363 327.40171166137065L937.4469288943363 327.40171166137065Q919.3811674861871 327.40171166137065 909.1993267752861 338.909994006169Q899.017486064385 350.3995940744334 899.017486064385 369.3434224796695Q899.017486064385 388.28725088490563 910.2081697081093 401.8879482014854Q921.4175356283673 415.4886455180652 940.6602804581436 415.4886455180652L940.6602804581436 415.4886455180652Q951.1597198701187 415.4886455180652 959.8096139052511 409.24876515578825Q968.4408256638498 403.00888479351124 973.3729466687633 393.94798067463597L973.3729466687633 393.94798067463597Q973.5037226044997 393.55565286742694 974.1576022831814 393.55565286742694L974.1576022831814 393.55565286742694L975.0169870037345 393.55565286742694Q975.6708666824162 393.55565286742694 975.6708666824162 394.340308481845Q975.6708666824162 395.1249640962631 975.2785388752071 395.85357288107986L975.2785388752071 395.85357288107986ZM1003.1151309105147 311.83937530874573L1003.1151309105147 367.4751948262932Q1003.1151309105147 369.0445060551293 1003.5821878238588 369.0445060551293Q1004.0492447372029 369.0445060551293 1004.2360675025405 368.8203187367242Q1004.4415725444119 368.59613141831903 1007.0010444295375 365.75642538518696L1007.0010444295375 365.75642538518696Q1014.4179082134416 357.49885915726355 1022.040277039217 357.49885915726355L1022.040277039217 357.49885915726355Q1032.0166127082466 357.49885915726355 1036.6871818416876 361.963923248833L1036.6871818416876 361.963923248833Q1042.403958461019 367.6059707620296 1042.403958461019 380.94511620713666L1042.403958461019 380.94511620713666L1042.403958461019 408.3333336056338Q1042.403958461019 414.76003673324846 1049.4845412673158 415.80624421913916L1049.4845412673158 415.80624421913916Q1052.5857991719204 416.19857202634824 1052.5857991719204 417.1887326826377Q1052.5857991719204 418.17889333892714 1051.9132372167046 418.30966927466346L1051.9132372167046 418.30966927466346L1022.6194276117636 418.30966927466346Q1021.965547933082 418.17889333892714 1021.965547933082 417.3942377245091L1021.965547933082 417.3942377245091Q1021.965547933082 416.19857202634824 1025.0668058376868 415.80624421913916L1025.0668058376868 415.80624421913916Q1032.147388643983 414.76003673324846 1032.147388643983 408.3333336056338L1032.147388643983 408.3333336056338L1032.147388643983 381.59899588581834Q1032.147388643983 371.94025891786265 1030.7649001804846 369.0445060551293L1030.7649001804846 369.0445060551293Q1028.1493814657579 363.27168260619646 1019.7984038551655 363.27168260619646L1019.7984038551655 363.27168260619646Q1014.6794600849142 363.27168260619646 1008.9066366359813 367.6433353150971Q1003.1151309105147 371.99630574746396 1003.1151309105147 377.2647077299852L1003.1151309105147 377.2647077299852L1003.1151309105147 408.3333336056338Q1003.1151309105147 414.76003673324846 1010.2143959933447 415.80624421913916L1010.2143959933447 415.80624421913916Q1013.2969716214158 416.19857202634824 1013.2969716214158 417.1887326826377Q1013.2969716214158 418.17889333892714 1012.643091942734 418.30966927466346L1012.643091942734 418.30966927466346L983.3492823377929 418.30966927466346Q982.6954026591113 418.17889333892714 982.6954026591113 417.3942377245091L982.6954026591113 417.3942377245091Q982.6954026591113 416.19857202634824 985.7779782871822 415.80624421913916L985.7779782871822 415.80624421913916Q992.8772433700123 414.76003673324846 992.8772433700123 408.3333336056338L992.8772433700123 408.3333336056338L992.8772433700123 326.43023328161496Q992.8772433700123 323.665256354618 989.8507145715427 322.61904886872725L989.8507145715427 322.61904886872725Q988.5429552141792 322.15199195538315 987.0296908149444 321.85307553084294Q985.5164264157096 321.55415910630273 984.6383594186226 321.29260723483003Q983.741610145002 321.0310553633574 983.5174228265969 320.8068680449522Q983.2932355081917 320.58268072654704 983.2932355081917 319.81670738866273Q983.2932355081917 319.0694163273122 984.2647138879473 318.54631258436683L984.2647138879473 318.54631258436683L1001.0227159387331 310.66239188711864Q1001.8073715531513 310.2700640799096 1002.0128765950227 310.2700640799096L1002.0128765950227 310.2700640799096Q1003.1151309105147 310.2700640799096 1003.1151309105147 311.83937530874573L1003.1151309105147 311.83937530874573ZM1099.739865143139 407.4739488850807Q1099.739865143139 409.1740360496532 1101.346540925043 410.20156125901013Q1102.9532167069465 411.2104041918334 1105.0643139552617 411.2104041918334Q1107.1567289270433 411.2104041918334 1108.5765819436092 410.1268321528751Q1109.9777526836415 409.0432601139168 1110.5008564265868 409.0432601139168Q1111.023960169532 409.0432601139168 1111.023960169532 410.46311313048284Q1111.023960169532 411.86428387051507 1109.7162008121686 412.85444452680457L1109.7162008121686 412.85444452680457Q1099.8706410788755 420.084485545371 1096.3770553670615 420.084485545371L1096.3770553670615 420.084485545371Q1092.1735431469647 420.084485545371 1089.5580244322382 411.3411801275697L1089.5580244322382 411.3411801275697Q1089.3525193903665 410.687300448888 1089.2217434546303 410.76202955502305L1089.2217434546303 410.76202955502305Q1081.0762708859095 416.8711339815637 1078.983855914128 418.1041642327921L1078.983855914128 418.1041642327921Q1073.6033602724042 421.2054221373968 1068.1855000776127 419.0943248890815Q1062.7489576062876 417.00190991730005 1060.3202616568983 412.1445180185215L1060.3202616568983 412.1445180185215Q1059.1432782352713 409.6410929629972 1059.1432782352713 406.82006920639895L1059.1432782352713 406.82006920639895Q1059.1432782352713 401.23406852280374 1063.2907436257667 397.9459878528614Q1067.4195267397286 394.657907182919 1079.0399027437293 391.6500606609831L1079.0399027437293 391.6500606609831Q1082.9818630923533 390.58517089855854 1086.0831209969579 388.9598128401212Q1089.165696625029 387.31577250514994 1089.333837113833 386.84871559180584Q1089.483295326103 386.38165867846175 1089.483295326103 385.9893308712528L1089.483295326103 385.9893308712528L1089.483295326103 373.37879421096244Q1089.483295326103 365.96193042705835 1083.7104718771702 362.9354016285887L1083.7104718771702 362.9354016285887Q1081.8048796707262 361.963923248833 1079.1519964029317 361.963923248833Q1076.4804308586035 361.963923248833 1073.7528184846742 364.0563382206145Q1071.0252061107449 366.1674354689298 1071.0252061107449 370.0346667114188L1071.0252061107449 370.0346667114188L1071.3614870883525 372.5941385965444Q1070.9691592811437 373.37879421096244 1066.6348711253104 375.228339587805Q1062.300582969477 377.0592026881138 1061.6467032907954 377.1899786238502L1061.6467032907954 377.1899786238502Q1060.5818135283712 377.1899786238502 1060.5818135283712 374.6678712917921Q1060.5818135283712 372.1457639597341 1062.0950779276059 369.0445060551293Q1063.6083423268406 365.96193042705835 1066.3733192538375 363.4024585419328L1066.3733192538375 363.4024585419328Q1072.8000223814524 357.4241300511285 1081.0762708859095 357.4241300511285Q1089.3525193903665 357.4241300511285 1094.5461922667528 361.98260552536675Q1099.739865143139 366.5597632761388 1099.739865143139 372.8556904680171L1099.739865143139 372.8556904680171L1099.739865143139 407.4739488850807ZM1069.4558948819085 405.5683566786368Q1069.4558948819085 408.72566141284284 1071.8845908312978 411.06094597956326Q1074.3132867806871 413.3775482697499 1077.4332269618258 413.3775482697499Q1080.553167142964 413.3775482697499 1085.0182312345337 410.72466500195554Q1089.483295326103 408.0717817341611 1089.483295326103 405.2320757010291L1089.483295326103 405.2320757010291L1089.483295326103 391.91161253245576Q1089.483295326103 391.183003747639 1089.165696625029 391.183003747639Q1088.8294156474212 391.183003747639 1088.6986397116848 391.25773285377403L1088.6986397116848 391.25773285377403L1073.4725843366678 398.33831566007035Q1071.0999352168797 400.0570851011766 1070.2779150493943 401.23406852280374Q1069.4558948819085 402.4110519444308 1069.4558948819085 405.5683566786368ZM1165.4827962654526 397.62838915178736L1165.4827962654526 397.62838915178736L1165.3520203297162 383.76613996373493Q1165.3520203297162 375.2843864174063 1163.9134850366165 371.86552981172764Q1162.4562674669828 368.46535548258265 1160.2330765594652 366.7092214884089Q1157.9912033754135 364.9717697707689 1154.2173835155932 364.9717697707689Q1150.443563655773 364.9717697707689 1138.2253548026918 370.89405143197195L1138.2253548026918 370.89405143197195Q1136.5813144677206 371.86552981172764 1136.5252676381192 372.7249145322807L1136.5252676381192 372.7249145322807L1136.5252676381192 408.0717817341611Q1136.5252676381192 414.70398990364714 1143.6058504444156 415.67546828340284L1143.6058504444156 415.67546828340284Q1146.6884260724864 416.14252519674693 1146.6884260724864 417.15136812957013Q1146.6884260724864 418.17889333892714 1146.034546393805 418.30966927466346L1146.034546393805 418.30966927466346L1116.7407367888638 418.30966927466346Q1116.086857110182 418.17889333892714 1116.086857110182 417.3942377245091L1116.086857110182 417.3942377245091Q1116.086857110182 416.14252519674693 1119.169432738253 415.67546828340284L1119.169432738253 415.67546828340284Q1126.2686978210832 414.70398990364714 1126.2686978210832 408.0717817341611L1126.2686978210832 408.0717817341611L1126.2686978210832 370.37094768902654Q1126.2686978210832 367.6059707620296 1123.2421690226133 366.5597632761388L1123.2421690226133 366.5597632761388Q1121.9344096652499 366.09270636279473 1120.4211452660152 365.7937899382545Q1118.9078808667805 365.4948735137143 1118.0298138696935 365.2333216422416Q1117.133064596073 364.9717697707689 1116.9088772776677 364.74758245236376Q1116.6846899592624 364.52339513395856 1116.6846899592624 363.7574217960743Q1116.6846899592624 363.01013073472376 1117.674850615552 362.48702699177835L1117.674850615552 362.48702699177835L1134.414170389804 354.6031062945302Q1135.1988260042222 354.2107784873212 1135.4043310460936 354.2107784873212L1135.4043310460936 354.2107784873212Q1136.5252676381192 354.2107784873212 1136.5252676381192 355.7800897161573L1136.5252676381192 355.7800897161573L1136.5252676381192 366.0366595331934Q1136.7120904034568 366.69053921187515 1137.0483713810647 366.69053921187515L1137.0483713810647 366.69053921187515Q1137.4406991882738 366.69053921187515 1139.869395137663 365.4948735137143L1139.869395137663 365.4948735137143Q1145.5114426508594 362.673849757116 1151.228219270191 360.0583310423891Q1156.9449958895227 357.4241300511285 1160.6814511962752 357.4241300511285L1160.6814511962752 357.4241300511285Q1175.8514597416913 357.4241300511285 1175.8514597416913 385.07389932109834L1175.8514597416913 385.07389932109834L1175.2723091691446 404.2605973212734L1175.2723091691446 408.0717817341611Q1175.2723091691446 413.1907255044123 1180.3912529393958 414.76003673324846L1180.3912529393958 414.76003673324846Q1182.5583970173125 415.4886455180652 1184.557400606425 415.7875619426054Q1186.5564041955377 416.06779609061186 1187.1916015976858 416.3480302386183Q1187.8081167233 416.609582110091 1187.8081167233 417.3942377245091Q1187.8081167233 418.17889333892714 1187.1542370446182 418.30966927466346L1187.1542370446182 418.30966927466346L1155.506460596423 418.30966927466346Q1154.8338986412073 418.17889333892714 1154.8338986412073 417.3942377245091L1154.8338986412073 417.3942377245091Q1154.8338986412073 416.14252519674693 1157.9351565458123 415.67546828340284L1157.9351565458123 415.67546828340284Q1164.9596925225073 414.70398990364714 1164.9596925225073 407.529995714682L1164.9596925225073 407.529995714682Q1165.4827962654526 404.2605973212734 1165.4827962654526 397.62838915178736ZM1242.9208324979018 363.7387395195405L1242.9208324979018 363.7387395195405Q1242.9208324979018 363.7387395195405 1260.519536992707 362.9354016285887L1260.519536992707 362.9354016285887Q1262.032801391942 362.9354016285887 1262.4998583052857 363.27168260619646Q1262.9482329420962 363.5892813072704 1263.4713366850415 365.5322380667818Q1263.9944404279872 367.4751948262932 1263.9944404279872 369.1752819908657Q1263.9944404279872 370.89405143197195 1263.6768417269132 371.1556033034446Q1263.3405607493055 371.4171551749173 1262.3504000930157 371.4171551749173L1262.3504000930157 371.4171551749173L1247.7782243966803 371.4171551749173Q1248.1705522038892 372.1457639597341 1248.6376091172333 372.93041957415215Q1249.0859837540438 373.7150751885702 1249.8145925388603 375.54593828887903Q1250.5432013236773 377.3954836657216 1250.5432013236773 381.2253503551431Q1250.5432013236773 385.07389932109834 1248.6562913937673 389.2400469881276Q1246.788063740391 393.4248769316906 1243.1823843693746 396.6382284954979L1243.1823843693746 396.6382284954979Q1235.1676877363902 403.86826951406437 1222.4263751403632 403.86826951406437L1222.4263751403632 403.86826951406437Q1219.0822476408198 403.86826951406437 1215.0655581860606 402.6165569863022L1215.0655581860606 402.6165569863022Q1214.0753975297712 403.6627644721929 1212.4500394713336 404.54083146927985Q1210.8059991363625 405.4375807429005 1209.2180056309928 406.35301229305486L1209.2180056309928 406.35301229305486Q1205.2760452823686 408.5948854771065 1205.2760452823686 410.81807638462436L1205.2760452823686 410.81807638462436Q1205.2760452823686 416.4040770682196 1223.808863603862 416.53485300395596Q1242.3229996488217 416.6656289396923 1248.133187650822 417.74920097865055Q1253.9433756528224 418.8327730176089 1257.1754094931634 422.04612458141617L1257.1754094931634 422.04612458141617Q1262.2196241572797 427.10902152206603 1262.2196241572797 433.61045375581574L1262.2196241572797 433.61045375581574Q1262.2196241572797 439.196454439411 1257.4369613646359 445.10005382408025L1257.4369613646359 445.10005382408025Q1249.0859837540438 455.543446406454 1231.9543361725828 459.03703211826775L1231.9543361725828 459.03703211826775Q1225.845231746042 460.27006236949615 1219.0075185346848 460.27006236949615L1219.0075185346848 460.27006236949615Q1206.6024869162657 460.27006236949615 1200.1571015121176 455.7863160013929Q1193.730398384503 451.2838873567559 1193.730398384503 444.9132310587426L1193.730398384503 444.9132310587426Q1193.730398384503 441.4383276234626 1195.374438719474 439.15908988634345Q1196.9997967779113 436.8985344257581 1199.5405863865035 434.8995308366454Q1202.0626937185611 432.88184497099894 1205.089222517031 430.69601861654866Q1208.1157513155008 428.4915099855645 1210.862045965964 425.0726533798858L1210.862045965964 425.0726533798858Q1204.5661187740857 424.54954963694047 1200.0636901294488 421.07464620166047Q1195.5612614848117 417.5810604898467 1195.5612614848117 414.23693299030305Q1195.5612614848117 410.8928054907594 1197.3360777555192 409.28612970885575Q1199.1108940262266 407.6607716504183 1201.6703659113523 406.52115278185875Q1204.229837796478 405.3628516367654 1207.0508615530762 404.3913732570097Q1209.8718853096743 403.40121260072027 1211.9829825579895 401.83190137188416L1211.9829825579895 401.83190137188416Q1204.6221656036869 398.9361485091508 1200.6241584254617 393.8358870154334Q1196.6074689707025 388.7543077982497 1196.6074689707025 382.71993247784417L1196.6074689707025 382.71993247784417Q1196.6074689707025 371.47320200451855 1204.790306092491 364.39261919822223Q1212.9731432142792 357.29335411539216 1224.5187901121449 357.29335411539216Q1236.0831192865444 357.29335411539216 1242.9208324979018 363.7387395195405ZM1207.2190020418802 432.2279652923172Q1205.6683730895777 433.74122969155206 1204.6968947098221 435.4599991326583Q1203.7067340535327 437.16008629723075 1203.7067340535327 439.75692273542387Q1203.7067340535327 442.353759173617 1205.5749617069089 445.21214748328276Q1207.4431893602853 448.07053579294865 1210.6752232006263 450.3684558066015L1210.6752232006263 450.3684558066015Q1217.7558060069227 455.61817551258906 1227.750823952486 455.61817551258906Q1237.7271596215155 455.61817551258906 1245.8352676371692 449.8079875105886Q1253.9433756528224 443.9977995085882 1253.9433756528224 437.06667491456193Q1253.9433756528224 430.13555032053574 1247.255120653735 427.76290120074776L1247.255120653735 427.76290120074776Q1244.0978159195288 426.716693714857 1231.0389046224286 426.4551418433843Q1217.961311048794 426.19358997191165 1214.0753975297712 425.72653305856755L1214.0753975297712 425.72653305856755Q1212.3753103651989 427.70685437114645 1210.5631295414237 429.2201187703813Q1208.7696309941825 430.7147008930824 1207.2190020418802 432.2279652923172ZM1239.763527763696 381.2066680786093Q1239.763527763696 371.94025891786265 1235.1303231833226 366.13007091586223Q1230.4971186029493 360.3198829138618 1222.8934320537073 360.3198829138618L1222.8934320537073 360.3198829138618Q1213.0291900438806 360.3198829138618 1208.9564537595202 369.5676097980747L1208.9564537595202 369.5676097980747Q1207.3871425306838 373.1172423394898 1207.3871425306838 377.71308236679556L1207.3871425306838 377.71308236679556Q1207.3871425306838 387.11026746327855 1211.254373773173 393.35014782555555L1211.254373773173 393.35014782555555Q1215.9809897362152 400.84174071559465 1223.6780876681255 400.84174071559465Q1231.3565033235022 400.84174071559465 1235.560015543599 395.64806783920847Q1239.763527763696 390.4543949628222 1239.763527763696 381.2066680786093ZM1317.7993968452256 383.69141085759986L1279.706234992882 383.69141085759986Q1278.5852984008561 383.69141085759986 1278.5852984008561 388.4927559267771L1278.5852984008561 388.4927559267771Q1278.5852984008561 398.6745966376781 1284.6196737212617 405.5683566786368Q1290.6727313182014 412.46211671959554 1299.6402240544076 412.46211671959554Q1308.5890345140801 412.46211671959554 1316.8652830185374 404.70897195808374L1316.8652830185374 404.70897195808374Q1316.9960589542738 404.57819602234736 1317.2015639961455 404.57819602234736L1317.2015639961455 404.57819602234736L1317.5378449737532 404.57819602234736Q1317.930172780962 404.57819602234736 1318.2851360351037 405.21339342449534Q1318.640099289245 405.8299085501095 1318.9763802668526 406.0354135919809L1318.9763802668526 406.0354135919809Q1311.354011441077 415.2831404761938 1301.0413947944398 418.8327730176089L1301.0413947944398 418.8327730176089Q1297.4917622530247 420.084485545371 1293.0266981614554 420.084485545371Q1288.5616340698857 420.084485545371 1283.96579404258 417.6184250429142Q1279.3699540152743 415.1523645404574 1276.081873345332 411.1543573622321L1276.081873345332 411.1543573622321Q1269.1320664747718 402.80337975163985 1269.1320664747718 390.3609835801534Q1269.1320664747718 377.91858740866695 1276.7170707474802 367.66201759163084Q1284.3020750201877 357.4241300511285 1297.56649135916 357.4241300511285L1297.56649135916 357.4241300511285Q1307.094452391379 357.4241300511285 1313.1288277117847 365.92456587399084Q1319.1632030321903 374.44368397338695 1319.1632030321903 380.8703871010016L1319.1632030321903 380.8703871010016Q1319.1632030321903 383.69141085759986 1317.7993968452256 383.69141085759986L1317.7993968452256 383.69141085759986ZM1280.4161615011653 376.61082805130354L1280.4161615011653 377.3954836657216Q1280.4161615011653 378.6471961934837 1281.611827199326 378.6471961934837L1281.611827199326 378.6471961934837L1306.3658436065625 378.6471961934837Q1308.0659307711348 378.6471961934837 1308.0659307711348 376.61082805130354L1308.0659307711348 376.61082805130354Q1308.0659307711348 371.86552981172764 1303.8437362745044 366.9147265302803Q1299.6028595013404 361.963923248833 1294.5399625606901 361.963923248833L1294.5399625606901 361.963923248833Q1289.6078415557768 361.963923248833 1285.572469824484 366.42898734040244Q1281.5370980931907 370.89405143197195 1280.4161615011653 376.61082805130354L1280.4161615011653 376.61082805130354ZM1370.147135692831 371.2116501330459L1370.147135692831 371.2116501330459Q1369.3437978018787 371.0808741973095 1367.8492156791776 370.37094768902654L1367.8492156791776 370.37094768902654Q1362.393990931319 367.86752263350223 1359.311415303248 367.86752263350223Q1356.2101573986433 367.86752263350223 1352.8286653460323 371.7160715994575Q1349.4471732934207 375.54593828887903 1349.4471732934207 378.6471961934837L1349.4471732934207 378.6471961934837L1349.4471732934207 408.3333336056338Q1349.4471732934207 413.2467723340136 1355.1639499127527 414.8908126689848L1355.1639499127527 414.8908126689848Q1357.6673749682768 415.5446923476665 1359.8345190461937 415.8436087722067Q1362.00166312411 416.14252519674693 1362.6181782497242 416.4040770682196Q1363.2346933753383 416.6656289396923 1363.2346933753383 417.4316022775766Q1363.2346933753383 418.17889333892714 1362.5808136966566 418.30966927466346L1362.5808136966566 418.30966927466346L1329.6813247206992 418.30966927466346Q1329.0274450420175 418.17889333892714 1329.0274450420175 417.3942377245091L1329.0274450420175 417.3942377245091Q1329.0274450420175 416.19857202634824 1332.1100206700885 415.80624421913916L1332.1100206700885 415.80624421913916Q1339.2092857529187 414.76003673324846 1339.2092857529187 408.3333336056338L1339.2092857529187 408.3333336056338L1339.2092857529187 373.58429925283383Q1339.2092857529187 370.8193223258369 1336.182756954449 369.7731148399461L1336.182756954449 369.7731148399461Q1334.8749975970854 369.306057926602 1333.3617331978508 369.02582377859557Q1331.8484687986156 368.72690735405536 1330.970401801529 368.46535548258265Q1330.0736525279085 368.20380361111 1329.8494652095033 367.96093401617105Q1329.606595614564 367.7367466977659 1329.606595614564 366.98945563641536Q1329.606595614564 366.22348229853105 1330.5967562708538 365.7003785555857L1330.5967562708538 365.7003785555857L1347.3547583216396 357.8164578583375Q1348.1394139360573 357.4241300511285 1348.326236701395 357.4241300511285L1348.326236701395 357.4241300511285Q1349.4471732934207 357.4241300511285 1349.4471732934207 358.9934412799646L1349.4471732934207 358.9934412799646L1349.4471732934207 369.6423389042098Q1349.4471732934207 370.42699451862785 1349.83950110063 370.42699451862785L1349.83950110063 370.42699451862785Q1350.3626048435754 370.42699451862785 1352.5297489214918 367.3444188905569L1352.5297489214918 367.3444188905569Q1358.769629283769 358.60111347275557 1362.8423655681295 358.60111347275557L1362.8423655681295 358.60111347275557Q1365.1402855817823 358.60111347275557 1369.9042660978917 360.45065884959814Q1374.6682466140014 362.28152194990696 1374.6682466140014 363.5332344776691L1374.6682466140014 363.5332344776691Q1374.6682466140014 365.04649887690397 1373.1549822147667 368.12907450497494Q1371.641717815532 371.2116501330459 1370.147135692831 371.2116501330459Z " fill="#ddc6b6" transform="matrix(0.6365172560511874,0,0,0.6365172560511875,0,54.76895614364118)"/></g></svg>